<mxfile host="app.diagrams.net" agent="Mozilla/5.0 (X11; Ubuntu; Linux x86_64; rv:132.0) Gecko/20100101 Firefox/132.0" version="25.0.3">
  <diagram name="Page-1" id="YcZxQdP-sLEUCD2x7oEg">
    <mxGraphModel dx="1602" dy="935" grid="1" gridSize="10" guides="1" tooltips="1" connect="1" arrows="1" fold="1" page="1" pageScale="1" pageWidth="850" pageHeight="1100" math="0" shadow="0">
      <root>
        <mxCell id="0" />
        <mxCell id="1" parent="0" />
        <mxCell id="7YXDTnWUT9KUjHaPm-hT-1" value="加载配置文件" style="rounded=0;whiteSpace=wrap;html=1;" parent="1" vertex="1">
          <mxGeometry x="320" y="330" width="120" height="60" as="geometry" />
        </mxCell>
        <mxCell id="7YXDTnWUT9KUjHaPm-hT-2" value="增量建图" style="rounded=0;whiteSpace=wrap;html=1;" parent="1" vertex="1">
          <mxGeometry x="320" y="420" width="120" height="60" as="geometry" />
        </mxCell>
        <mxCell id="7YXDTnWUT9KUjHaPm-hT-3" value="初始化ipm" style="rounded=0;whiteSpace=wrap;html=1;" parent="1" vertex="1">
          <mxGeometry x="510" y="420" width="120" height="60" as="geometry" />
        </mxCell>
        <mxCell id="7YXDTnWUT9KUjHaPm-hT-4" value="&lt;div&gt;遍历时间戳，&lt;/div&gt;&lt;div&gt;对每一帧做&lt;/div&gt;" style="rounded=0;whiteSpace=wrap;html=1;" parent="1" vertex="1">
          <mxGeometry x="510" y="500" width="120" height="60" as="geometry" />
        </mxCell>
        <mxCell id="7YXDTnWUT9KUjHaPm-hT-6" value="&lt;div&gt;通过lower_bound在找到&amp;gt;=当前时刻的imu位姿：this_pose&lt;/div&gt;" style="rounded=0;whiteSpace=wrap;html=1;" parent="1" vertex="1">
          <mxGeometry x="710" y="500" width="370" height="60" as="geometry" />
        </mxCell>
        <mxCell id="7YXDTnWUT9KUjHaPm-hT-7" value="R,t加入队列pose_history，通过窗口去除历史值" style="rounded=0;whiteSpace=wrap;html=1;" parent="1" vertex="1">
          <mxGeometry x="710" y="590" width="370" height="60" as="geometry" />
        </mxCell>
        <mxCell id="7YXDTnWUT9KUjHaPm-hT-8" value="&lt;div&gt;均值化IMU姿态估计，减小姿态数据中的噪声。&lt;/div&gt;&lt;div&gt;如果遇到陡坡则pose_history清零。&lt;br&gt;&lt;/div&gt;" style="rounded=0;whiteSpace=wrap;html=1;" parent="1" vertex="1">
          <mxGeometry x="710" y="680" width="370" height="60" as="geometry" />
        </mxCell>
        <mxCell id="7YXDTnWUT9KUjHaPm-hT-10" value="计算当前位姿和平滑位姿关系，更新ipm参数（外参）" style="rounded=0;whiteSpace=wrap;html=1;" parent="1" vertex="1">
          <mxGeometry x="710" y="820" width="370" height="60" as="geometry" />
        </mxCell>
        <mxCell id="7YXDTnWUT9KUjHaPm-hT-12" value="&lt;div&gt;图像放在ipm，ipm_semantic中&lt;/div&gt;&lt;div&gt;generateInstancePatch() 产生patch&lt;/div&gt;" style="rounded=0;whiteSpace=wrap;html=1;" parent="1" vertex="1">
          <mxGeometry x="710" y="900" width="370" height="60" as="geometry" />
        </mxCell>
        <mxCell id="7YXDTnWUT9KUjHaPm-hT-13" value="标签聚类，生成ipm_instance,stats,centroids" style="rounded=0;whiteSpace=wrap;html=1;" parent="1" vertex="1">
          <mxGeometry x="1120" y="900" width="370" height="60" as="geometry" />
        </mxCell>
        <mxCell id="7YXDTnWUT9KUjHaPm-hT-14" value="ipm_semantic分为停车线和非停车线，分别提出标记，再拼接，" style="rounded=0;whiteSpace=wrap;html=1;" parent="1" vertex="1">
          <mxGeometry x="1850" y="1120" width="370" height="60" as="geometry" />
        </mxCell>
        <mxCell id="7YXDTnWUT9KUjHaPm-hT-15" value="新建patches_temp，将当前帧所有patch放入，向量形式，设置每一个patch的主类型" style="rounded=0;whiteSpace=wrap;html=1;" parent="1" vertex="1">
          <mxGeometry x="1120" y="980" width="370" height="60" as="geometry" />
        </mxCell>
        <mxCell id="7YXDTnWUT9KUjHaPm-hT-16" value="计算patch的mean,cov,主方向，计算不确定性" style="rounded=0;whiteSpace=wrap;html=1;" parent="1" vertex="1">
          <mxGeometry x="1120" y="1060" width="370" height="60" as="geometry" />
        </mxCell>
        <mxCell id="7YXDTnWUT9KUjHaPm-hT-17" value="判断条状特征/solid/stop，旋转patch.points，拟合，有效性检查" style="rounded=0;whiteSpace=wrap;html=1;" parent="1" vertex="1">
          <mxGeometry x="1120" y="1140" width="370" height="60" as="geometry" />
        </mxCell>
        <mxCell id="7YXDTnWUT9KUjHaPm-hT-18" value="将实线和虚线的mean和direction加入方向场" style="rounded=0;whiteSpace=wrap;html=1;" parent="1" vertex="1">
          <mxGeometry x="1120" y="1220" width="370" height="60" as="geometry" />
        </mxCell>
        <mxCell id="7YXDTnWUT9KUjHaPm-hT-19" value="根据方向场，重新计算点云的边界框，计算不确定度矩阵，加入frame.pathes返回frame" style="rounded=0;whiteSpace=wrap;html=1;" parent="1" vertex="1">
          <mxGeometry x="1120" y="1300" width="370" height="60" as="geometry" />
        </mxCell>
        <mxCell id="7YXDTnWUT9KUjHaPm-hT-20" value="generateMetricPatches&lt;br&gt;处理线段与边界点，将其转换到度量空间，放入b-point_metric" style="rounded=0;whiteSpace=wrap;html=1;" parent="1" vertex="1">
          <mxGeometry x="710" y="1380" width="370" height="60" as="geometry" />
        </mxCell>
        <mxCell id="7YXDTnWUT9KUjHaPm-hT-21" value="添加frame信息到map中，地图坐标系下，进行全局坐标转换" style="rounded=0;whiteSpace=wrap;html=1;" parent="1" vertex="1">
          <mxGeometry x="710" y="1460" width="370" height="60" as="geometry" />
        </mxCell>
        <mxCell id="7YXDTnWUT9KUjHaPm-hT-22" value="&lt;div&gt;mergePatches：&lt;/div&gt;&lt;div&gt;patch/guide:patch聚类融合，统一成为cluster，冻结patch，更新patches_new&lt;/div&gt;&lt;div&gt;solid/stop:距离计算和聚类,合并为更大的单一线段（&lt;code&gt;line_est&lt;/code&gt;），生成&lt;code&gt;linked_frames，&lt;/code&gt;更新patches_new&lt;/div&gt;" style="rounded=0;whiteSpace=wrap;html=1;" parent="1" vertex="1">
          <mxGeometry x="710" y="1540" width="370" height="130" as="geometry" />
        </mxCell>
        <mxCell id="7YXDTnWUT9KUjHaPm-hT-25" value="&lt;div&gt;Dashed/Guide:&lt;code&gt;linked_frames&lt;/code&gt;的大小为1&lt;/div&gt;" style="rounded=0;whiteSpace=wrap;html=1;" parent="1" vertex="1">
          <mxGeometry x="710" y="1700" width="370" height="60" as="geometry" />
        </mxCell>
        <mxCell id="OZblSlZHAKCrSJXgoKLu-2" value="&lt;div&gt;地理注册&lt;/div&gt;" style="rounded=0;whiteSpace=wrap;html=1;" vertex="1" parent="1">
          <mxGeometry x="365" y="1780" width="120" height="60" as="geometry" />
        </mxCell>
        <mxCell id="OZblSlZHAKCrSJXgoKLu-3" value="代码遍历 &lt;code&gt;patches&lt;/code&gt; 数据结构，从补丁中的点集（&lt;code&gt;line_points_metric&lt;/code&gt; 或 &lt;code&gt;mean_metric&lt;/code&gt;）中提取要校准的点" style="rounded=0;whiteSpace=wrap;html=1;" vertex="1" parent="1">
          <mxGeometry x="530" y="1780" width="370" height="60" as="geometry" />
        </mxCell>
        <mxCell id="OZblSlZHAKCrSJXgoKLu-4" value="通过对比局部轨迹（IMU轨迹）和全局轨迹（GNSS或参考轨迹），将补丁中的每个点从局部坐标系转换到全局坐标系中" style="rounded=0;whiteSpace=wrap;html=1;" vertex="1" parent="1">
          <mxGeometry x="530" y="1860" width="370" height="60" as="geometry" />
        </mxCell>
        <mxCell id="OZblSlZHAKCrSJXgoKLu-5" value="标记融合" style="rounded=0;whiteSpace=wrap;html=1;" vertex="1" parent="1">
          <mxGeometry x="365" y="1940" width="120" height="60" as="geometry" />
        </mxCell>
        <mxCell id="OZblSlZHAKCrSJXgoKLu-6" value="&lt;div&gt;生成当前帧this_frame，赋值Rt&lt;/div&gt;" style="rounded=0;whiteSpace=wrap;html=1;" vertex="1" parent="1">
          <mxGeometry x="1850" y="980" width="370" height="60" as="geometry" />
        </mxCell>
      </root>
    </mxGraphModel>
  </diagram>
</mxfile>
